<svg width="214" height="50" fill="none" xmlns="http://www.w3.org/2000/svg"><g clip-path="url(#clip0_4752_15281)" fill="#F96E32"><path d="M19.807 25.114h6.095v24.282h-6.095V46.83c-1.19 1.13-2.383 1.945-3.58 2.444-1.197.499-2.494.747-3.892.747-3.136 0-5.85-1.216-8.14-3.649C1.906 43.94.761 40.916.761 37.301c0-3.75 1.108-6.822 3.323-9.217 2.215-2.395 4.905-3.593 8.072-3.593 1.457 0 2.824.275 4.102.825 1.28.55 2.461 1.376 3.547 2.478v-2.68h.002zm-6.408 4.999c-1.884 0-3.448.665-4.695 1.997-1.247 1.333-1.869 3.04-1.869 5.122 0 2.098.634 3.825 1.903 5.178 1.267 1.355 2.83 2.032 4.684 2.032 1.913 0 3.501-.666 4.761-1.998 1.261-1.331 1.891-3.076 1.891-5.234 0-2.113-.63-3.823-1.89-5.133-1.26-1.309-2.856-1.964-4.785-1.964zm24.738 19.283h-6.095V25.114h21.3v24.282h-6.096V30.984h-9.109v18.412zm19.2-24.282h22.639v5.802h-8.083v18.479h-6.095V30.917h-8.462v-5.803h.001zm50.971 13.904h-19.58c.283 1.726 1.038 3.098 2.266 4.117 1.227 1.02 2.794 1.53 4.7 1.53 2.277 0 4.234-.796 5.871-2.389l5.135 2.41c-1.28 1.816-2.813 3.158-4.599 4.029-1.786.87-3.908 1.305-6.363 1.305-3.81 0-6.914-1.201-9.31-3.604-2.397-2.403-3.594-5.412-3.594-9.028 0-3.705 1.194-6.78 3.583-9.228 2.389-2.448 5.383-3.671 8.987-3.671 3.825 0 6.935 1.223 9.332 3.67 2.396 2.448 3.595 5.681 3.595 9.698l-.023 1.16zm-6.095-4.799c-.403-1.353-1.196-2.455-2.382-3.303-1.186-.848-2.56-1.272-4.126-1.272-1.7 0-3.19.477-4.473 1.429-.806.595-1.55 1.644-2.237 3.146h13.218zm24.224 5.536h-4.897c-3.308 0-5.854-.636-7.636-1.908-1.781-1.272-2.672-3.366-2.672-6.282v-6.45h6.095v5.981c0 2.128 1.428 3.192 4.285 3.192l2.378-.023h2.445v-9.15h6.095v24.281h-6.095v-9.64h.002zm12.236-14.641h6.094v9.085l8.393-9.085h7.442l-10.819 11.832 10.952 12.45h-8.084l-7.242-8.576-.642.765v7.81h-6.096v-24.28h.002zm42.486 0h6.095v24.282h-6.095V46.83c-1.189 1.13-2.382 1.945-3.579 2.444-1.197.499-2.494.747-3.891.747-3.137 0-5.851-1.216-8.14-3.649-2.29-2.432-3.434-5.456-3.434-9.071 0-3.75 1.107-6.821 3.322-9.217 2.216-2.395 4.906-3.593 8.072-3.593 1.457 0 2.825.275 4.104.826 1.278.55 2.461 1.375 3.546 2.477v-2.68zm-6.407 4.999c-1.885 0-3.449.665-4.696 1.998-1.246 1.332-1.869 3.039-1.869 5.122 0 2.097.635 3.824 1.903 5.177 1.268 1.355 2.83 2.032 4.684 2.032 1.913 0 3.501-.666 4.761-1.998 1.261-1.331 1.891-3.076 1.891-5.234 0-2.113-.631-3.823-1.891-5.133-1.261-1.309-2.855-1.964-4.783-1.964zM213.21 9.715h-10.264V-.03h-5.058v9.744h-10.264v4.878h10.264v9.743h5.058v-9.743h10.264V9.715z"/></g><defs><clipPath id="clip0_4752_15281"><path fill="#fff" transform="translate(.75)" d="M0 0h212.5v50H0z"/></clipPath></defs></svg>