<?xml version="1.0" encoding="utf-8"?><svg viewBox="0 0 20 20" xmlns="http://www.w3.org/2000/svg" xmlns:xlink="http://www.w3.org/1999/xlink"><style>:root>svg{display:none}:root>svg:target{display:block}</style><svg fill="none" viewBox="0 0 20 20" id="icon-caret" xmlns="http://www.w3.org/2000/svg"><path d="M10 12.917a1.662 1.662 0 01-1.179-.488l-4.41-4.412L5.589 6.84l4.41 4.41 4.412-4.41 1.178 1.178-4.41 4.411a1.661 1.661 0 01-1.18.489z" fill="#333"/></svg><svg fill="none" viewBox="0 0 19 19" id="icon-check-black" xmlns="http://www.w3.org/2000/svg"><g clip-path="url(#bclip0_6433_577)"><path d="M6.135 16.358a2.03 2.03 0 01-1.438-.596L.351 11.417a1.198 1.198 0 011.694-1.694l4.09 4.09 10.82-10.82a1.198 1.198 0 011.694 1.694L7.572 15.762a2.03 2.03 0 01-1.437.596z" fill="#333"/></g><defs><clipPath id="bclip0_6433_577"><path fill="#fff" d="M0 0h19v19H0z"/></clipPath></defs></svg><svg fill="none" viewBox="0 0 15 15" id="icon-close" xmlns="http://www.w3.org/2000/svg"><path fill-rule="evenodd" clip-rule="evenodd" d="M8.82 7.5l5.916 5.916a.933.933 0 01-1.32 1.32L7.5 8.82l-5.916 5.915a.933.933 0 01-1.32-1.319L6.18 7.5.264 1.584a.933.933 0 011.32-1.32L7.5 6.18 13.416.264a.933.933 0 011.32 1.32L8.82 7.5z" fill="currentColor"/></svg><svg fill="none" viewBox="0 0 18 18" id="icon-eye" xmlns="http://www.w3.org/2000/svg"><path d="M17.453 7.064C16.29 5.17 13.644 1.991 9 1.991c-4.644 0-7.29 3.179-8.453 5.073a3.681 3.681 0 000 3.872C1.71 12.83 4.356 16.009 9 16.009c4.644 0 7.29-3.179 8.453-5.073a3.68 3.68 0 000-3.872zm-1.279 3.086c-.998 1.625-3.26 4.359-7.174 4.359-3.914 0-6.175-2.734-7.174-4.359a2.189 2.189 0 010-2.3C2.825 6.224 5.086 3.49 9 3.49c3.914 0 6.175 2.731 7.174 4.358a2.188 2.188 0 010 2.301z" fill="currentColor"/><path d="M9 5.25a3.75 3.75 0 100 7.5 3.75 3.75 0 000-7.5zm0 6a2.25 2.25 0 110-4.5 2.25 2.25 0 010 4.5z" fill="currentColor"/></svg><svg fill="none" viewBox="0 0 20 20" id="icon-eye-crossed" xmlns="http://www.w3.org/2000/svg"><path d="M19.85 9.318a13.113 13.113 0 00-3.453-4.534l2.526-2.526-1.179-1.18L15 3.819A9.819 9.819 0 0010 2.5C3.75 2.5.88 7.718.15 9.318a1.64 1.64 0 000 1.366 13.114 13.114 0 003.453 4.534l-2.525 2.526 1.178 1.178L5 16.181a9.82 9.82 0 005 1.319c6.25 0 9.12-5.217 9.85-6.818a1.64 1.64 0 000-1.364zm-18.183.691C2.292 8.64 4.744 4.167 10 4.167a8.206 8.206 0 013.765.89l-1.47 1.47a4.16 4.16 0 00-5.767 5.767l-1.733 1.733a11.372 11.372 0 01-3.128-4.018zM12.5 10a2.5 2.5 0 01-2.5 2.5 2.459 2.459 0 01-1.07-.25l3.32-3.32c.163.333.249.699.25 1.07zm-5 0A2.5 2.5 0 0110 7.5c.371.001.737.087 1.07.25l-3.32 3.32A2.46 2.46 0 017.5 10zm2.5 5.833a8.205 8.205 0 01-3.765-.89l1.47-1.47a4.16 4.16 0 005.768-5.767l1.731-1.732A11.32 11.32 0 0118.334 10c-.637 1.38-3.09 5.833-8.334 5.833z" fill="currentColor"/></svg></svg>