<?xml version="1.0" encoding="utf-8"?><svg viewBox="0 0 25 25" xmlns="http://www.w3.org/2000/svg" xmlns:xlink="http://www.w3.org/1999/xlink"><style>:root>svg{display:none}:root>svg:target{display:block}</style><svg fill="none" viewBox="0 0 20 20" id="icon-arrow-prev" xmlns="http://www.w3.org/2000/svg"><path d="M18.334 9.167H3.679l4.41-4.411a.833.833 0 10-1.178-1.179L1.078 9.411a.833.833 0 000 1.178l5.833 5.833a.833.833 0 001.179-1.178l-4.411-4.41h14.655a.834.834 0 000-1.667z" fill="currentColor"/></svg><svg fill="none" viewBox="0 0 20 20" id="icon-bonuses" xmlns="http://www.w3.org/2000/svg"><path d="M15.833 2.5H4.167A4.171 4.171 0 000 6.667v6.666A4.171 4.171 0 004.167 17.5h11.666A4.171 4.171 0 0020 13.333V6.667A4.171 4.171 0 0015.833 2.5zm2.5 10.833c0 1.379-1.121 2.5-2.5 2.5H4.167a2.503 2.503 0 01-2.5-2.5V6.667c0-1.379 1.121-2.5 2.5-2.5h11.666c1.379 0 2.5 1.121 2.5 2.5v6.666zm-1.666-6.666c0 .46-.374.833-.834.833H12.5a.833.833 0 110-1.667h3.333c.46 0 .834.373.834.834zm0 3.333c0 .46-.374.833-.834.833H12.5a.833.833 0 110-1.666h3.333c.46 0 .834.372.834.833zM15 13.333c0 .461-.373.834-.833.834H12.5a.833.833 0 110-1.667h1.667c.46 0 .833.373.833.833zm-4.62-4.18a.625.625 0 01-.186.692l-1.478 1.204.612 1.863a.625.625 0 01-.935.72l-1.72-1.121-1.693 1.132a.62.62 0 01-.723-.019.625.625 0 01-.221-.687l.588-1.885-1.486-1.21a.625.625 0 01.405-1.1h1.875l.664-1.863a.626.626 0 011.172 0l.664 1.863h1.876c.263 0 .498.164.588.41h-.003z" fill="currentColor"/></svg><svg fill="none" viewBox="0 0 20 20" id="icon-caret" xmlns="http://www.w3.org/2000/svg"><path d="M10 12.917a1.662 1.662 0 01-1.179-.488l-4.41-4.412L5.589 6.84l4.41 4.41 4.412-4.41 1.178 1.178-4.41 4.411a1.661 1.661 0 01-1.18.489z" fill="currentColor"/></svg><svg fill="none" viewBox="0 0 19 19" id="icon-check-black" xmlns="http://www.w3.org/2000/svg"><g clip-path="url(#dclip0_6433_577)"><path d="M6.135 16.358a2.03 2.03 0 01-1.438-.596L.351 11.417a1.198 1.198 0 011.694-1.694l4.09 4.09 10.82-10.82a1.198 1.198 0 011.694 1.694L7.572 15.762a2.03 2.03 0 01-1.437.596z" fill="#333"/></g><defs><clipPath id="dclip0_6433_577"><path fill="#fff" d="M0 0h19v19H0z"/></clipPath></defs></svg><svg fill="none" viewBox="0 0 15 15" id="icon-close" xmlns="http://www.w3.org/2000/svg"><path fill-rule="evenodd" clip-rule="evenodd" d="M8.82 7.5l5.916 5.916a.933.933 0 01-1.32 1.32L7.5 8.82l-5.916 5.915a.933.933 0 01-1.32-1.319L6.18 7.5.264 1.584a.933.933 0 011.32-1.32L7.5 6.18 13.416.264a.933.933 0 011.32 1.32L8.82 7.5z" fill="currentColor"/></svg><svg fill="none" viewBox="0 0 18 18" id="icon-eye" xmlns="http://www.w3.org/2000/svg"><path d="M17.453 7.064C16.29 5.17 13.644 1.991 9 1.991c-4.644 0-7.29 3.179-8.453 5.073a3.681 3.681 0 000 3.872C1.71 12.83 4.356 16.009 9 16.009c4.644 0 7.29-3.179 8.453-5.073a3.68 3.68 0 000-3.872zm-1.279 3.086c-.998 1.625-3.26 4.359-7.174 4.359-3.914 0-6.175-2.734-7.174-4.359a2.189 2.189 0 010-2.3C2.825 6.224 5.086 3.49 9 3.49c3.914 0 6.175 2.731 7.174 4.358a2.188 2.188 0 010 2.301z" fill="currentColor"/><path d="M9 5.25a3.75 3.75 0 100 7.5 3.75 3.75 0 000-7.5zm0 6a2.25 2.25 0 110-4.5 2.25 2.25 0 010 4.5z" fill="currentColor"/></svg><svg fill="none" viewBox="0 0 20 20" id="icon-eye-crossed" xmlns="http://www.w3.org/2000/svg"><path d="M19.85 9.318a13.113 13.113 0 00-3.453-4.534l2.526-2.526-1.179-1.18L15 3.819A9.819 9.819 0 0010 2.5C3.75 2.5.88 7.718.15 9.318a1.64 1.64 0 000 1.366 13.114 13.114 0 003.453 4.534l-2.525 2.526 1.178 1.178L5 16.181a9.82 9.82 0 005 1.319c6.25 0 9.12-5.217 9.85-6.818a1.64 1.64 0 000-1.364zm-18.183.691C2.292 8.64 4.744 4.167 10 4.167a8.206 8.206 0 013.765.89l-1.47 1.47a4.16 4.16 0 00-5.767 5.767l-1.733 1.733a11.372 11.372 0 01-3.128-4.018zM12.5 10a2.5 2.5 0 01-2.5 2.5 2.459 2.459 0 01-1.07-.25l3.32-3.32c.163.333.249.699.25 1.07zm-5 0A2.5 2.5 0 0110 7.5c.371.001.737.087 1.07.25l-3.32 3.32A2.46 2.46 0 017.5 10zm2.5 5.833a8.205 8.205 0 01-3.765-.89l1.47-1.47a4.16 4.16 0 005.768-5.767l1.731-1.732A11.32 11.32 0 0118.334 10c-.637 1.38-3.09 5.833-8.334 5.833z" fill="currentColor"/></svg><svg fill="none" viewBox="0 0 20 20" id="icon-favorites" xmlns="http://www.w3.org/2000/svg"><path d="M5.71 19.532a3.01 3.01 0 01-1.768-.584 2.975 2.975 0 01-1.109-3.378l.975-3.016-2.566-1.876a3.02 3.02 0 011.783-5.46h3.142l.954-2.975a3.022 3.022 0 015.755 0l.957 2.975h3.142a3.02 3.02 0 011.782 5.46l-2.565 1.876.975 3.016a3.022 3.022 0 01-4.667 3.363L10 17.094l-2.5 1.84a3.016 3.016 0 01-1.79.598zM3.025 7.718a.522.522 0 00-.308.942l3.296 2.41a1.25 1.25 0 01.452 1.393l-1.25 3.875a.522.522 0 00.805.583l3.24-2.384a1.25 1.25 0 011.482 0l3.241 2.383a.52.52 0 00.805-.583l-1.25-3.875a1.25 1.25 0 01.452-1.394l3.296-2.409a.522.522 0 00-.308-.942h-4.061a1.25 1.25 0 01-1.19-.869L10.5 3.006a.522.522 0 00-.993 0L8.27 6.849a1.25 1.25 0 01-1.188.869H3.025z" fill="currentColor"/></svg><svg fill="none" viewBox="0 0 25 25" id="icon-globe" xmlns="http://www.w3.org/2000/svg"><path d="M24.39 16.76s-9.098-4.135-9.13-4.145a2.072 2.072 0 00-2.149.498c-.566.567-.757 1.39-.46 2.241l4.108 9.037c.166.365.527.603.93.61h.02c.393 0 .755-.223.932-.576l1.928-3.856 3.856-1.928a1.042 1.042 0 00-.034-1.88h-.001zm-5.064 2.1a1.044 1.044 0 00-.466.466l-1.108 2.217-3.17-6.954 6.959 3.164-2.214 1.106-.001.001zm-5.876 4.015c-.18.016-.36.027-.542.034-.695-.688-2.51-2.622-3.775-5.2h.763a1.041 1.041 0 100-2.083H8.302a10.69 10.69 0 01-.49-3.125c0-1.083.188-2.132.492-3.125h8.393c.123.403.227.816.307 1.237a1.04 1.04 0 102.046-.39 13.226 13.226 0 00-.19-.847H22.434a10.374 10.374 0 01.437 4.074 1.042 1.042 0 002.075.188c.033-.374.05-.754.05-1.136C25 5.607 19.394 0 12.5 0S0 5.607 0 12.5 5.607 25 12.499 25c.382 0 .76-.018 1.133-.051a1.042 1.042 0 00-.183-2.075l.001.001zm-7.312-7.249H2.562a10.375 10.375 0 01-.479-3.126c0-1.088.168-2.139.48-3.126H6.137c-.256.995-.409 2.04-.409 3.125 0 1.084.152 2.13.409 3.125v.002zm3-8.333c1.064-2.164 2.516-3.88 3.364-4.78.849.9 2.301 2.612 3.365 4.78H9.139zm12.38 0h-3.362c-.824-1.965-1.966-3.634-2.95-4.851a10.465 10.465 0 016.313 4.85zM9.793 2.442c-.984 1.217-2.127 2.886-2.95 4.85h-3.36a10.453 10.453 0 016.31-4.85zm-6.31 15.266h3.36c.823 1.965 1.966 3.633 2.95 4.85a10.466 10.466 0 01-6.31-4.85z" fill="currentColor"/></svg><svg fill="none" viewBox="0 0 20 20" id="icon-info" xmlns="http://www.w3.org/2000/svg"><path d="M10 20a10 10 0 1110-10 10.011 10.011 0 01-10 10zm0-18.333A8.333 8.333 0 1018.333 10 8.342 8.342 0 0010 1.667z" fill="currentColor"/><path d="M11.667 15.833H10V10H8.334V8.333H10A1.667 1.667 0 0111.667 10v5.833zM10 6.667a1.25 1.25 0 100-2.5 1.25 1.25 0 000 2.5z" fill="currentColor"/></svg><svg fill="none" viewBox="0 0 20 20" id="icon-location" xmlns="http://www.w3.org/2000/svg"><path d="M10 5a3.333 3.333 0 100 6.667A3.333 3.333 0 0010 5zm0 5a1.667 1.667 0 110-3.333A1.667 1.667 0 0110 10z" fill="currentColor"/><path d="M10 20a4.392 4.392 0 01-3.593-1.833c-3.176-4.381-4.786-7.675-4.786-9.79a8.38 8.38 0 1116.758 0c0 2.115-1.61 5.409-4.787 9.79A4.393 4.393 0 0110 20zm0-18.183A6.57 6.57 0 003.438 8.38c0 1.675 1.578 4.773 4.44 8.722a2.62 2.62 0 004.243 0c2.863-3.95 4.44-7.047 4.44-8.722A6.569 6.569 0 0010 1.817z" fill="currentColor"/></svg><svg fill="none" viewBox="0 0 25 25" id="icon-notifications" xmlns="http://www.w3.org/2000/svg"><path d="M23.495 14.231l-1.979-7.12a9.71 9.71 0 00-18.832.493l-1.533 6.89a5.208 5.208 0 005.085 6.34h1.16a5.208 5.208 0 0010.209 0h.872a5.208 5.208 0 005.018-6.603zM12.5 22.917a3.126 3.126 0 01-2.933-2.084h5.867a3.125 3.125 0 01-2.934 2.084zm8.465-5.401a3.1 3.1 0 01-2.489 1.234H6.236a3.126 3.126 0 01-3.05-3.803l1.531-6.892a7.626 7.626 0 0114.792-.387l1.979 7.12a3.1 3.1 0 01-.523 2.728z" fill="currentColor"/></svg><svg fill="none" viewBox="0 0 20 20" id="icon-order-history" xmlns="http://www.w3.org/2000/svg"><path d="M18.612 11.527A4.576 4.576 0 0114.167 15H5.99a2.925 2.925 0 01-2.891-2.53l-1.28-9.608a.418.418 0 00-.414-.362h-.156a1.25 1.25 0 110-2.5h.157c1.456 0 2.699 1.088 2.89 2.53l.219 1.637H8.75a1.25 1.25 0 110 2.5H4.847l.73 5.471a.418.418 0 00.413.362h8.176a2.08 2.08 0 002.021-1.578 1.249 1.249 0 112.425.605zM20 4.167a4.167 4.167 0 11-8.334-.001 4.167 4.167 0 018.334 0zm-2.5.488l-.834-.833V2.5A.834.834 0 0015 2.5v1.667c0 .22.087.433.244.589l1.078 1.077A.834.834 0 0017.5 4.655zM5.833 16.667a1.666 1.666 0 100 3.332 1.666 1.666 0 000-3.332zm8.333 0a1.666 1.666 0 100 3.332 1.666 1.666 0 000-3.332z" fill="currentColor"/></svg><svg fill="none" viewBox="0 0 20 20" id="icon-profile" xmlns="http://www.w3.org/2000/svg"><path d="M15.833 0H4.167A4.172 4.172 0 000 4.167v11.666A4.172 4.172 0 004.167 20h11.666A4.172 4.172 0 0020 15.833V4.167A4.172 4.172 0 0015.833 0zm-10 18.333V17.5a4.167 4.167 0 118.334 0v.833H5.833zm12.5-2.5a2.5 2.5 0 01-2.5 2.5V17.5a5.833 5.833 0 10-11.666 0v.833a2.5 2.5 0 01-2.5-2.5V4.167a2.5 2.5 0 012.5-2.5h11.666a2.5 2.5 0 012.5 2.5v11.666z" fill="currentColor"/><path d="M10 3.333A3.333 3.333 0 1010 10a3.333 3.333 0 000-6.667zm0 5A1.667 1.667 0 1110 5a1.667 1.667 0 010 3.333z" fill="currentColor"/></svg><svg fill="none" viewBox="0 0 25 25" id="icon-security" xmlns="http://www.w3.org/2000/svg"><path d="M19.791 8.775V7.292a7.292 7.292 0 10-14.583 0v1.483a5.208 5.208 0 00-3.125 4.767v6.25A5.215 5.215 0 007.291 25h10.417a5.215 5.215 0 005.208-5.208v-6.25a5.208 5.208 0 00-3.125-4.767zm-12.5-1.483a5.208 5.208 0 0110.417 0v1.041H7.291V7.292zm13.542 12.5a3.125 3.125 0 01-3.125 3.125H7.291a3.125 3.125 0 01-3.125-3.125v-6.25a3.125 3.125 0 013.125-3.125h10.417a3.125 3.125 0 013.125 3.125v6.25z" fill="currentColor"/><path d="M12.5 14.584a1.042 1.042 0 00-1.042 1.041v2.084a1.042 1.042 0 002.083 0v-2.084a1.041 1.041 0 00-1.041-1.041z" fill="currentColor"/></svg><svg fill="none" viewBox="0 0 20 20" id="icon-user-delete" xmlns="http://www.w3.org/2000/svg"><path d="M7.5 10a5 5 0 100-10 5 5 0 000 10zm0-8.333a3.333 3.333 0 110 6.666 3.333 3.333 0 010-6.666zm7.5 17.5a.833.833 0 01-1.667 0 5.833 5.833 0 10-11.666 0 .833.833 0 01-1.667 0 7.5 7.5 0 1115 0zm4.756-7.256a.835.835 0 01-.586 1.433.832.832 0 01-.593-.255l-1.494-1.494-1.494 1.494a.833.833 0 01-1.178-1.178l1.494-1.494-1.494-1.495a.833.833 0 011.178-1.178l1.494 1.494 1.495-1.494a.833.833 0 011.178 1.178l-1.494 1.495 1.494 1.494z" fill="currentColor"/></svg></svg>